<?xml version="1.0" encoding="UTF-8"?>
<!DOCTYPE svg PUBLIC "-//W3C//DTD SVG 1.1//EN" "http://www.w3.org/Graphics/SVG/1.1/DTD/svg11.dtd">
<svg xmlns="http://www.w3.org/2000/svg" version="1.1" width="1050px" height="430px" style="shape-rendering:geometricPrecision; text-rendering:geometricPrecision; image-rendering:optimizeQuality; fill-rule:evenodd; clip-rule:evenodd" xmlns:xlink="http://www.w3.org/1999/xlink">
<g><path style="opacity:1" fill="#f6e3f9" d="M 849.5,89.5 C 826.167,89.5 802.833,89.5 779.5,89.5C 779.5,92.8333 779.5,96.1667 779.5,99.5C 766.167,99.5 752.833,99.5 739.5,99.5C 739.5,102.833 739.5,106.167 739.5,109.5C 756.167,109.5 772.833,109.5 789.5,109.5C 789.5,106.167 789.5,102.833 789.5,99.5C 799.5,99.5 809.5,99.5 819.5,99.5C 819.5,102.833 819.5,106.167 819.5,109.5C 819.5,116.167 819.5,122.833 819.5,129.5C 812.833,129.5 806.167,129.5 799.5,129.5C 799.5,132.833 799.5,136.167 799.5,139.5C 796.167,139.5 792.833,139.5 789.5,139.5C 789.5,142.833 789.5,146.167 789.5,149.5C 786.167,149.5 782.833,149.5 779.5,149.5C 779.5,159.5 779.5,169.5 779.5,179.5C 772.833,179.5 766.167,179.5 759.5,179.5C 759.5,176.167 759.5,172.833 759.5,169.5C 756.167,169.5 752.833,169.5 749.5,169.5C 749.5,166.167 749.5,162.833 749.5,159.5C 746.167,159.5 742.833,159.5 739.5,159.5C 739.5,152.833 739.5,146.167 739.5,139.5C 736.167,139.5 732.833,139.5 729.5,139.5C 729.5,142.833 729.5,146.167 729.5,149.5C 726.167,149.5 722.833,149.5 719.5,149.5C 719.5,152.833 719.5,156.167 719.5,159.5C 722.833,159.5 726.167,159.5 729.5,159.5C 729.5,162.833 729.5,166.167 729.5,169.5C 719.5,169.5 709.5,169.5 699.5,169.5C 696.167,169.5 692.833,169.5 689.5,169.5C 689.5,166.167 689.5,162.833 689.5,159.5C 686.167,159.5 682.833,159.5 679.5,159.5C 679.5,156.167 679.5,152.833 679.5,149.5C 676.167,149.5 672.833,149.5 669.5,149.5C 669.5,146.167 669.5,142.833 669.5,139.5C 666.167,139.5 662.833,139.5 659.5,139.5C 659.5,132.833 659.5,126.167 659.5,119.5C 662.833,119.5 666.167,119.5 669.5,119.5C 669.5,116.167 669.5,112.833 669.5,109.5C 676.167,109.5 682.833,109.5 689.5,109.5C 689.5,106.167 689.5,102.833 689.5,99.5C 692.833,99.5 696.167,99.5 699.5,99.5C 699.5,92.8333 699.5,86.1667 699.5,79.5C 702.833,79.5 706.167,79.5 709.5,79.5C 709.5,72.8333 709.5,66.1667 709.5,59.5C 712.833,59.5 716.167,59.5 719.5,59.5C 719.5,56.1667 719.5,52.8333 719.5,49.5C 726.167,49.5 732.833,49.5 739.5,49.5C 739.5,46.1667 739.5,42.8333 739.5,39.5C 749.5,39.5 759.5,39.5 769.5,39.5C 769.5,42.8333 769.5,46.1667 769.5,49.5C 776.167,49.5 782.833,49.5 789.5,49.5C 789.5,52.8333 789.5,56.1667 789.5,59.5C 792.833,59.5 796.167,59.5 799.5,59.5C 799.5,62.8333 799.5,66.1667 799.5,69.5C 809.5,69.5 819.5,69.5 829.5,69.5C 829.5,72.8333 829.5,76.1667 829.5,79.5C 836.167,79.5 842.833,79.5 849.5,79.5C 849.5,82.8333 849.5,86.1667 849.5,89.5 Z"/></g>
<g><path style="opacity:1" fill="#f6e3f9" d="M 929.5,89.5 C 922.833,89.5 916.167,89.5 909.5,89.5C 909.5,96.1667 909.5,102.833 909.5,109.5C 906.167,109.5 902.833,109.5 899.5,109.5C 899.5,119.5 899.5,129.5 899.5,139.5C 902.833,139.5 906.167,139.5 909.5,139.5C 909.5,132.833 909.5,126.167 909.5,119.5C 912.833,119.5 916.167,119.5 919.5,119.5C 919.5,112.833 919.5,106.167 919.5,99.5C 926.167,99.5 932.833,99.5 939.5,99.5C 949.5,99.5 959.5,99.5 969.5,99.5C 969.5,102.833 969.5,106.167 969.5,109.5C 972.833,109.5 976.167,109.5 979.5,109.5C 979.5,116.167 979.5,122.833 979.5,129.5C 982.833,129.5 986.167,129.5 989.5,129.5C 989.5,136.167 989.5,142.833 989.5,149.5C 996.167,149.5 1002.83,149.5 1009.5,149.5C 1009.5,152.833 1009.5,156.167 1009.5,159.5C 999.5,159.5 989.5,159.5 979.5,159.5C 979.5,156.167 979.5,152.833 979.5,149.5C 966.167,149.5 952.833,149.5 939.5,149.5C 939.5,152.833 939.5,156.167 939.5,159.5C 936.167,159.5 932.833,159.5 929.5,159.5C 929.5,156.167 929.5,152.833 929.5,149.5C 912.833,149.5 896.167,149.5 879.5,149.5C 879.5,152.833 879.5,156.167 879.5,159.5C 876.167,159.5 872.833,159.5 869.5,159.5C 869.5,162.833 869.5,166.167 869.5,169.5C 876.167,169.5 882.833,169.5 889.5,169.5C 889.5,166.167 889.5,162.833 889.5,159.5C 892.833,159.5 896.167,159.5 899.5,159.5C 899.5,162.833 899.5,166.167 899.5,169.5C 902.833,169.5 906.167,169.5 909.5,169.5C 909.5,172.833 909.5,176.167 909.5,179.5C 902.833,179.5 896.167,179.5 889.5,179.5C 889.5,182.833 889.5,186.167 889.5,189.5C 886.167,189.5 882.833,189.5 879.5,189.5C 879.5,186.167 879.5,182.833 879.5,179.5C 869.5,179.5 859.5,179.5 849.5,179.5C 849.5,176.167 849.5,172.833 849.5,169.5C 846.167,169.5 842.833,169.5 839.5,169.5C 839.5,156.167 839.5,142.833 839.5,129.5C 842.833,129.5 846.167,129.5 849.5,129.5C 849.5,126.167 849.5,122.833 849.5,119.5C 856.167,119.5 862.833,119.5 869.5,119.5C 869.5,112.833 869.5,106.167 869.5,99.5C 866.167,99.5 862.833,99.5 859.5,99.5C 859.5,96.1667 859.5,92.8333 859.5,89.5C 862.833,89.5 866.167,89.5 869.5,89.5C 869.5,86.1667 869.5,82.8333 869.5,79.5C 889.5,79.5 909.5,79.5 929.5,79.5C 929.5,82.8333 929.5,86.1667 929.5,89.5 Z"/></g>
<g><path style="opacity:1" fill="#f9c3ee" d="M 849.5,89.5 C 849.5,92.8333 849.5,96.1667 849.5,99.5C 852.833,99.5 856.167,99.5 859.5,99.5C 862.833,99.5 866.167,99.5 869.5,99.5C 869.5,106.167 869.5,112.833 869.5,119.5C 862.833,119.5 856.167,119.5 849.5,119.5C 849.5,122.833 849.5,126.167 849.5,129.5C 846.167,129.5 842.833,129.5 839.5,129.5C 839.5,142.833 839.5,156.167 839.5,169.5C 842.833,169.5 846.167,169.5 849.5,169.5C 849.5,172.833 849.5,176.167 849.5,179.5C 846.167,179.5 842.833,179.5 839.5,179.5C 836.167,179.5 832.833,179.5 829.5,179.5C 829.5,176.167 829.5,172.833 829.5,169.5C 826.167,169.5 822.833,169.5 819.5,169.5C 819.5,166.167 819.5,162.833 819.5,159.5C 822.833,159.5 826.167,159.5 829.5,159.5C 829.5,146.167 829.5,132.833 829.5,119.5C 832.833,119.5 836.167,119.5 839.5,119.5C 839.5,116.167 839.5,112.833 839.5,109.5C 832.833,109.5 826.167,109.5 819.5,109.5C 819.5,106.167 819.5,102.833 819.5,99.5C 809.5,99.5 799.5,99.5 789.5,99.5C 789.5,102.833 789.5,106.167 789.5,109.5C 772.833,109.5 756.167,109.5 739.5,109.5C 739.5,106.167 739.5,102.833 739.5,99.5C 752.833,99.5 766.167,99.5 779.5,99.5C 779.5,96.1667 779.5,92.8333 779.5,89.5C 802.833,89.5 826.167,89.5 849.5,89.5 Z"/></g>
<g><path style="opacity:1" fill="#f9c3ee" d="M 929.5,89.5 C 932.833,89.5 936.167,89.5 939.5,89.5C 939.5,92.8333 939.5,96.1667 939.5,99.5C 932.833,99.5 926.167,99.5 919.5,99.5C 919.5,106.167 919.5,112.833 919.5,119.5C 916.167,119.5 912.833,119.5 909.5,119.5C 909.5,126.167 909.5,132.833 909.5,139.5C 906.167,139.5 902.833,139.5 899.5,139.5C 899.5,129.5 899.5,119.5 899.5,109.5C 902.833,109.5 906.167,109.5 909.5,109.5C 909.5,102.833 909.5,96.1667 909.5,89.5C 916.167,89.5 922.833,89.5 929.5,89.5 Z"/></g>
<g><path style="opacity:1" fill="#f9a3e5" d="M 689.5,99.5 C 689.5,102.833 689.5,106.167 689.5,109.5C 682.833,109.5 676.167,109.5 669.5,109.5C 669.5,112.833 669.5,116.167 669.5,119.5C 666.167,119.5 662.833,119.5 659.5,119.5C 659.5,126.167 659.5,132.833 659.5,139.5C 662.833,139.5 666.167,139.5 669.5,139.5C 669.5,142.833 669.5,146.167 669.5,149.5C 672.833,149.5 676.167,149.5 679.5,149.5C 679.5,152.833 679.5,156.167 679.5,159.5C 682.833,159.5 686.167,159.5 689.5,159.5C 689.5,162.833 689.5,166.167 689.5,169.5C 692.833,169.5 696.167,169.5 699.5,169.5C 699.5,172.833 699.5,176.167 699.5,179.5C 696.167,179.5 692.833,179.5 689.5,179.5C 682.833,179.5 676.167,179.5 669.5,179.5C 669.5,176.167 669.5,172.833 669.5,169.5C 662.833,169.5 656.167,169.5 649.5,169.5C 649.5,149.5 649.5,129.5 649.5,109.5C 652.833,109.5 656.167,109.5 659.5,109.5C 659.5,106.167 659.5,102.833 659.5,99.5C 669.5,99.5 679.5,99.5 689.5,99.5 Z"/></g>
<g><path style="opacity:1" fill="#f9c3ee" d="M 739.5,109.5 C 739.5,112.833 739.5,116.167 739.5,119.5C 736.167,119.5 732.833,119.5 729.5,119.5C 729.5,116.167 729.5,112.833 729.5,109.5C 732.833,109.5 736.167,109.5 739.5,109.5 Z"/></g>
<g><path style="opacity:1" fill="#f9a3e5" d="M 819.5,109.5 C 826.167,109.5 832.833,109.5 839.5,109.5C 839.5,112.833 839.5,116.167 839.5,119.5C 836.167,119.5 832.833,119.5 829.5,119.5C 829.5,132.833 829.5,146.167 829.5,159.5C 826.167,159.5 822.833,159.5 819.5,159.5C 816.167,159.5 812.833,159.5 809.5,159.5C 809.5,156.167 809.5,152.833 809.5,149.5C 806.167,149.5 802.833,149.5 799.5,149.5C 799.5,152.833 799.5,156.167 799.5,159.5C 796.167,159.5 792.833,159.5 789.5,159.5C 789.5,162.833 789.5,166.167 789.5,169.5C 792.833,169.5 796.167,169.5 799.5,169.5C 799.5,172.833 799.5,176.167 799.5,179.5C 792.833,179.5 786.167,179.5 779.5,179.5C 779.5,169.5 779.5,159.5 779.5,149.5C 782.833,149.5 786.167,149.5 789.5,149.5C 789.5,146.167 789.5,142.833 789.5,139.5C 792.833,139.5 796.167,139.5 799.5,139.5C 799.5,136.167 799.5,132.833 799.5,129.5C 806.167,129.5 812.833,129.5 819.5,129.5C 819.5,122.833 819.5,116.167 819.5,109.5 Z"/></g>
<g><path style="opacity:1" fill="#f9c3ee" d="M 729.5,119.5 C 729.5,122.833 729.5,126.167 729.5,129.5C 726.167,129.5 722.833,129.5 719.5,129.5C 719.5,132.833 719.5,136.167 719.5,139.5C 716.167,139.5 712.833,139.5 709.5,139.5C 709.5,132.833 709.5,126.167 709.5,119.5C 716.167,119.5 722.833,119.5 729.5,119.5 Z"/></g>
<g><path style="opacity:1" fill="#f9a3e5" d="M 749.5,169.5 C 742.833,169.5 736.167,169.5 729.5,169.5C 729.5,166.167 729.5,162.833 729.5,159.5C 726.167,159.5 722.833,159.5 719.5,159.5C 719.5,156.167 719.5,152.833 719.5,149.5C 722.833,149.5 726.167,149.5 729.5,149.5C 729.5,146.167 729.5,142.833 729.5,139.5C 732.833,139.5 736.167,139.5 739.5,139.5C 739.5,146.167 739.5,152.833 739.5,159.5C 742.833,159.5 746.167,159.5 749.5,159.5C 749.5,162.833 749.5,166.167 749.5,169.5 Z"/></g>
<g><path style="opacity:1" fill="#f6e3f9" d="M 369.5,149.5 C 369.5,152.833 369.5,156.167 369.5,159.5C 366.167,159.5 362.833,159.5 359.5,159.5C 359.5,162.833 359.5,166.167 359.5,169.5C 356.167,169.5 352.833,169.5 349.5,169.5C 349.5,166.167 349.5,162.833 349.5,159.5C 349.5,156.167 349.5,152.833 349.5,149.5C 356.167,149.5 362.833,149.5 369.5,149.5 Z"/></g>
<g><path style="opacity:1" fill="#f9c3ee" d="M 369.5,149.5 C 372.833,149.5 376.167,149.5 379.5,149.5C 379.5,159.5 379.5,169.5 379.5,179.5C 382.833,179.5 386.167,179.5 389.5,179.5C 389.5,189.5 389.5,199.5 389.5,209.5C 386.167,209.5 382.833,209.5 379.5,209.5C 379.5,202.833 379.5,196.167 379.5,189.5C 376.167,189.5 372.833,189.5 369.5,189.5C 369.5,186.167 369.5,182.833 369.5,179.5C 366.167,179.5 362.833,179.5 359.5,179.5C 359.5,176.167 359.5,172.833 359.5,169.5C 359.5,166.167 359.5,162.833 359.5,159.5C 362.833,159.5 366.167,159.5 369.5,159.5C 369.5,156.167 369.5,152.833 369.5,149.5 Z"/></g>
<g><path style="opacity:1" fill="#f6e3f9" d="M 379.5,149.5 C 406.167,149.5 432.833,149.5 459.5,149.5C 459.5,152.833 459.5,156.167 459.5,159.5C 462.833,159.5 466.167,159.5 469.5,159.5C 469.5,162.833 469.5,166.167 469.5,169.5C 472.833,169.5 476.167,169.5 479.5,169.5C 479.5,172.833 479.5,176.167 479.5,179.5C 482.833,179.5 486.167,179.5 489.5,179.5C 489.5,192.833 489.5,206.167 489.5,219.5C 486.167,219.5 482.833,219.5 479.5,219.5C 479.5,216.167 479.5,212.833 479.5,209.5C 476.167,209.5 472.833,209.5 469.5,209.5C 469.5,212.833 469.5,216.167 469.5,219.5C 462.833,219.5 456.167,219.5 449.5,219.5C 449.5,222.833 449.5,226.167 449.5,229.5C 442.833,229.5 436.167,229.5 429.5,229.5C 429.5,226.167 429.5,222.833 429.5,219.5C 426.167,219.5 422.833,219.5 419.5,219.5C 419.5,216.167 419.5,212.833 419.5,209.5C 409.5,209.5 399.5,209.5 389.5,209.5C 389.5,199.5 389.5,189.5 389.5,179.5C 386.167,179.5 382.833,179.5 379.5,179.5C 379.5,169.5 379.5,159.5 379.5,149.5 Z"/></g>
<g><path style="opacity:1" fill="#f6e3f9" d="M 819.5,159.5 C 819.5,162.833 819.5,166.167 819.5,169.5C 822.833,169.5 826.167,169.5 829.5,169.5C 829.5,172.833 829.5,176.167 829.5,179.5C 826.167,179.5 822.833,179.5 819.5,179.5C 816.167,179.5 812.833,179.5 809.5,179.5C 809.5,182.833 809.5,186.167 809.5,189.5C 799.5,189.5 789.5,189.5 779.5,189.5C 779.5,186.167 779.5,182.833 779.5,179.5C 786.167,179.5 792.833,179.5 799.5,179.5C 799.5,176.167 799.5,172.833 799.5,169.5C 796.167,169.5 792.833,169.5 789.5,169.5C 789.5,166.167 789.5,162.833 789.5,159.5C 792.833,159.5 796.167,159.5 799.5,159.5C 799.5,156.167 799.5,152.833 799.5,149.5C 802.833,149.5 806.167,149.5 809.5,149.5C 809.5,152.833 809.5,156.167 809.5,159.5C 812.833,159.5 816.167,159.5 819.5,159.5 Z"/></g>
<g><path style="opacity:1" fill="#f9c3ee" d="M 929.5,159.5 C 929.5,162.833 929.5,166.167 929.5,169.5C 926.167,169.5 922.833,169.5 919.5,169.5C 919.5,172.833 919.5,176.167 919.5,179.5C 916.167,179.5 912.833,179.5 909.5,179.5C 909.5,176.167 909.5,172.833 909.5,169.5C 906.167,169.5 902.833,169.5 899.5,169.5C 899.5,166.167 899.5,162.833 899.5,159.5C 896.167,159.5 892.833,159.5 889.5,159.5C 889.5,162.833 889.5,166.167 889.5,169.5C 882.833,169.5 876.167,169.5 869.5,169.5C 869.5,166.167 869.5,162.833 869.5,159.5C 872.833,159.5 876.167,159.5 879.5,159.5C 879.5,156.167 879.5,152.833 879.5,149.5C 896.167,149.5 912.833,149.5 929.5,149.5C 929.5,152.833 929.5,156.167 929.5,159.5 Z"/></g>
<g><path style="opacity:1" fill="#f9c3ee" d="M 979.5,159.5 C 966.167,159.5 952.833,159.5 939.5,159.5C 939.5,156.167 939.5,152.833 939.5,149.5C 952.833,149.5 966.167,149.5 979.5,149.5C 979.5,152.833 979.5,156.167 979.5,159.5 Z"/></g>
<g><path style="opacity:1" fill="#f9c3ee" d="M 1049.5,149.5 C 1049.5,152.833 1049.5,156.167 1049.5,159.5C 1046.17,159.5 1042.83,159.5 1039.5,159.5C 1039.5,156.167 1039.5,152.833 1039.5,149.5C 1042.83,149.5 1046.17,149.5 1049.5,149.5 Z"/></g>
<g><path style="opacity:1" fill="#f6e3f9" d="M 199.5,159.5 C 199.5,162.833 199.5,166.167 199.5,169.5C 192.833,169.5 186.167,169.5 179.5,169.5C 179.5,172.833 179.5,176.167 179.5,179.5C 186.167,179.5 192.833,179.5 199.5,179.5C 199.5,182.833 199.5,186.167 199.5,189.5C 209.5,189.5 219.5,189.5 229.5,189.5C 229.5,192.833 229.5,196.167 229.5,199.5C 242.833,199.5 256.167,199.5 269.5,199.5C 269.5,196.167 269.5,192.833 269.5,189.5C 276.167,189.5 282.833,189.5 289.5,189.5C 289.5,192.833 289.5,196.167 289.5,199.5C 286.167,199.5 282.833,199.5 279.5,199.5C 279.5,202.833 279.5,206.167 279.5,209.5C 289.5,209.5 299.5,209.5 309.5,209.5C 309.5,212.833 309.5,216.167 309.5,219.5C 309.5,222.833 309.5,226.167 309.5,229.5C 312.833,229.5 316.167,229.5 319.5,229.5C 319.5,226.167 319.5,222.833 319.5,219.5C 326.167,219.5 332.833,219.5 339.5,219.5C 339.5,222.833 339.5,226.167 339.5,229.5C 336.167,229.5 332.833,229.5 329.5,229.5C 329.5,232.833 329.5,236.167 329.5,239.5C 326.167,239.5 322.833,239.5 319.5,239.5C 319.5,246.167 319.5,252.833 319.5,259.5C 316.167,259.5 312.833,259.5 309.5,259.5C 309.5,266.167 309.5,272.833 309.5,279.5C 306.167,279.5 302.833,279.5 299.5,279.5C 299.5,289.5 299.5,299.5 299.5,309.5C 292.833,309.5 286.167,309.5 279.5,309.5C 279.5,312.833 279.5,316.167 279.5,319.5C 242.833,319.5 206.167,319.5 169.5,319.5C 169.5,316.167 169.5,312.833 169.5,309.5C 162.833,309.5 156.167,309.5 149.5,309.5C 149.5,306.167 149.5,302.833 149.5,299.5C 132.833,299.5 116.167,299.5 99.5,299.5C 99.5,296.167 99.5,292.833 99.5,289.5C 96.1667,289.5 92.8333,289.5 89.5,289.5C 89.5,286.167 89.5,282.833 89.5,279.5C 86.1667,279.5 82.8333,279.5 79.5,279.5C 79.5,282.833 79.5,286.167 79.5,289.5C 69.5,289.5 59.5,289.5 49.5,289.5C 42.8333,289.5 36.1667,289.5 29.5,289.5C 29.5,286.167 29.5,282.833 29.5,279.5C 22.8333,279.5 16.1667,279.5 9.5,279.5C 9.5,266.167 9.5,252.833 9.5,239.5C 12.8333,239.5 16.1667,239.5 19.5,239.5C 19.5,249.5 19.5,259.5 19.5,269.5C 22.8333,269.5 26.1667,269.5 29.5,269.5C 29.5,266.167 29.5,262.833 29.5,259.5C 32.8333,259.5 36.1667,259.5 39.5,259.5C 39.5,262.833 39.5,266.167 39.5,269.5C 39.5,272.833 39.5,276.167 39.5,279.5C 49.5,279.5 59.5,279.5 69.5,279.5C 69.5,272.833 69.5,266.167 69.5,259.5C 72.8333,259.5 76.1667,259.5 79.5,259.5C 86.1667,259.5 92.8333,259.5 99.5,259.5C 99.5,256.167 99.5,252.833 99.5,249.5C 102.833,249.5 106.167,249.5 109.5,249.5C 109.5,252.833 109.5,256.167 109.5,259.5C 129.5,259.5 149.5,259.5 169.5,259.5C 169.5,256.167 169.5,252.833 169.5,249.5C 172.833,249.5 176.167,249.5 179.5,249.5C 179.5,246.167 179.5,242.833 179.5,239.5C 179.5,236.167 179.5,232.833 179.5,229.5C 182.833,229.5 186.167,229.5 189.5,229.5C 189.5,232.833 189.5,236.167 189.5,239.5C 199.5,239.5 209.5,239.5 219.5,239.5C 219.5,236.167 219.5,232.833 219.5,229.5C 212.833,229.5 206.167,229.5 199.5,229.5C 199.5,226.167 199.5,222.833 199.5,219.5C 189.5,219.5 179.5,219.5 169.5,219.5C 169.5,222.833 169.5,226.167 169.5,229.5C 162.833,229.5 156.167,229.5 149.5,229.5C 149.5,236.167 149.5,242.833 149.5,249.5C 142.833,249.5 136.167,249.5 129.5,249.5C 129.5,232.833 129.5,216.167 129.5,199.5C 132.833,199.5 136.167,199.5 139.5,199.5C 139.5,196.167 139.5,192.833 139.5,189.5C 142.833,189.5 146.167,189.5 149.5,189.5C 149.5,186.167 149.5,182.833 149.5,179.5C 152.833,179.5 156.167,179.5 159.5,179.5C 159.5,176.167 159.5,172.833 159.5,169.5C 162.833,169.5 166.167,169.5 169.5,169.5C 169.5,166.167 169.5,162.833 169.5,159.5C 179.5,159.5 189.5,159.5 199.5,159.5 Z"/></g>
<g><path style="opacity:1" fill="#f9a3e5" d="M 199.5,159.5 C 206.167,159.5 212.833,159.5 219.5,159.5C 219.5,162.833 219.5,166.167 219.5,169.5C 232.833,169.5 246.167,169.5 259.5,169.5C 259.5,166.167 259.5,162.833 259.5,159.5C 289.5,159.5 319.5,159.5 349.5,159.5C 349.5,162.833 349.5,166.167 349.5,169.5C 349.5,172.833 349.5,176.167 349.5,179.5C 352.833,179.5 356.167,179.5 359.5,179.5C 359.5,182.833 359.5,186.167 359.5,189.5C 349.5,189.5 339.5,189.5 329.5,189.5C 329.5,186.167 329.5,182.833 329.5,179.5C 332.833,179.5 336.167,179.5 339.5,179.5C 339.5,176.167 339.5,172.833 339.5,169.5C 329.5,169.5 319.5,169.5 309.5,169.5C 306.167,169.5 302.833,169.5 299.5,169.5C 299.5,172.833 299.5,176.167 299.5,179.5C 289.5,179.5 279.5,179.5 269.5,179.5C 269.5,182.833 269.5,186.167 269.5,189.5C 259.5,189.5 249.5,189.5 239.5,189.5C 239.5,186.167 239.5,182.833 239.5,179.5C 229.5,179.5 219.5,179.5 209.5,179.5C 209.5,176.167 209.5,172.833 209.5,169.5C 206.167,169.5 202.833,169.5 199.5,169.5C 199.5,166.167 199.5,162.833 199.5,159.5 Z"/></g>
<g><path style="opacity:1" fill="#f9e9f5" d="M 419.5,159.5 C 429.5,159.5 439.5,159.5 449.5,159.5C 449.5,162.833 449.5,166.167 449.5,169.5C 452.833,169.5 456.167,169.5 459.5,169.5C 459.5,172.833 459.5,176.167 459.5,179.5C 462.833,179.5 466.167,179.5 469.5,179.5C 469.5,182.833 469.5,186.167 469.5,189.5C 462.833,189.5 456.167,189.5 449.5,189.5C 449.5,186.167 449.5,182.833 449.5,179.5C 446.167,179.5 442.833,179.5 439.5,179.5C 439.5,176.167 439.5,172.833 439.5,169.5C 432.833,169.5 426.167,169.5 419.5,169.5C 419.5,166.167 419.5,162.833 419.5,159.5 Z"/></g>
<g><path style="opacity:1" fill="#f9a3e5" d="M 929.5,159.5 C 932.833,159.5 936.167,159.5 939.5,159.5C 952.833,159.5 966.167,159.5 979.5,159.5C 979.5,162.833 979.5,166.167 979.5,169.5C 982.833,169.5 986.167,169.5 989.5,169.5C 989.5,172.833 989.5,176.167 989.5,179.5C 976.167,179.5 962.833,179.5 949.5,179.5C 949.5,186.167 949.5,192.833 949.5,199.5C 946.167,199.5 942.833,199.5 939.5,199.5C 939.5,202.833 939.5,206.167 939.5,209.5C 936.167,209.5 932.833,209.5 929.5,209.5C 929.5,206.167 929.5,202.833 929.5,199.5C 892.833,199.5 856.167,199.5 819.5,199.5C 819.5,192.833 819.5,186.167 819.5,179.5C 822.833,179.5 826.167,179.5 829.5,179.5C 832.833,179.5 836.167,179.5 839.5,179.5C 839.5,182.833 839.5,186.167 839.5,189.5C 842.833,189.5 846.167,189.5 849.5,189.5C 859.5,189.5 869.5,189.5 879.5,189.5C 882.833,189.5 886.167,189.5 889.5,189.5C 889.5,186.167 889.5,182.833 889.5,179.5C 896.167,179.5 902.833,179.5 909.5,179.5C 912.833,179.5 916.167,179.5 919.5,179.5C 919.5,176.167 919.5,172.833 919.5,169.5C 922.833,169.5 926.167,169.5 929.5,169.5C 929.5,166.167 929.5,162.833 929.5,159.5 Z"/></g>
<g><path style="opacity:1" fill="#f9c3ee" d="M 979.5,159.5 C 989.5,159.5 999.5,159.5 1009.5,159.5C 1019.5,159.5 1029.5,159.5 1039.5,159.5C 1039.5,162.833 1039.5,166.167 1039.5,169.5C 1022.83,169.5 1006.17,169.5 989.5,169.5C 986.167,169.5 982.833,169.5 979.5,169.5C 979.5,166.167 979.5,162.833 979.5,159.5 Z"/></g>
<g><path style="opacity:1" fill="#f9c3ee" d="M 199.5,169.5 C 202.833,169.5 206.167,169.5 209.5,169.5C 209.5,172.833 209.5,176.167 209.5,179.5C 219.5,179.5 229.5,179.5 239.5,179.5C 239.5,182.833 239.5,186.167 239.5,189.5C 249.5,189.5 259.5,189.5 269.5,189.5C 269.5,192.833 269.5,196.167 269.5,199.5C 256.167,199.5 242.833,199.5 229.5,199.5C 229.5,196.167 229.5,192.833 229.5,189.5C 219.5,189.5 209.5,189.5 199.5,189.5C 199.5,186.167 199.5,182.833 199.5,179.5C 192.833,179.5 186.167,179.5 179.5,179.5C 179.5,176.167 179.5,172.833 179.5,169.5C 186.167,169.5 192.833,169.5 199.5,169.5 Z"/></g>
<g><path style="opacity:1" fill="#f9c3ee" d="M 309.5,169.5 C 309.5,172.833 309.5,176.167 309.5,179.5C 312.833,179.5 316.167,179.5 319.5,179.5C 319.5,182.833 319.5,186.167 319.5,189.5C 319.5,192.833 319.5,196.167 319.5,199.5C 322.833,199.5 326.167,199.5 329.5,199.5C 332.833,199.5 336.167,199.5 339.5,199.5C 339.5,202.833 339.5,206.167 339.5,209.5C 342.833,209.5 346.167,209.5 349.5,209.5C 349.5,219.5 349.5,229.5 349.5,239.5C 346.167,239.5 342.833,239.5 339.5,239.5C 339.5,242.833 339.5,246.167 339.5,249.5C 336.167,249.5 332.833,249.5 329.5,249.5C 329.5,259.5 329.5,269.5 329.5,279.5C 326.167,279.5 322.833,279.5 319.5,279.5C 319.5,289.5 319.5,299.5 319.5,309.5C 316.167,309.5 312.833,309.5 309.5,309.5C 309.5,312.833 309.5,316.167 309.5,319.5C 302.833,319.5 296.167,319.5 289.5,319.5C 289.5,322.833 289.5,326.167 289.5,329.5C 256.167,329.5 222.833,329.5 189.5,329.5C 179.5,329.5 169.5,329.5 159.5,329.5C 159.5,326.167 159.5,322.833 159.5,319.5C 156.167,319.5 152.833,319.5 149.5,319.5C 149.5,316.167 149.5,312.833 149.5,309.5C 156.167,309.5 162.833,309.5 169.5,309.5C 169.5,312.833 169.5,316.167 169.5,319.5C 206.167,319.5 242.833,319.5 279.5,319.5C 279.5,316.167 279.5,312.833 279.5,309.5C 286.167,309.5 292.833,309.5 299.5,309.5C 299.5,299.5 299.5,289.5 299.5,279.5C 302.833,279.5 306.167,279.5 309.5,279.5C 309.5,272.833 309.5,266.167 309.5,259.5C 312.833,259.5 316.167,259.5 319.5,259.5C 319.5,252.833 319.5,246.167 319.5,239.5C 322.833,239.5 326.167,239.5 329.5,239.5C 329.5,236.167 329.5,232.833 329.5,229.5C 332.833,229.5 336.167,229.5 339.5,229.5C 339.5,226.167 339.5,222.833 339.5,219.5C 332.833,219.5 326.167,219.5 319.5,219.5C 316.167,219.5 312.833,219.5 309.5,219.5C 309.5,216.167 309.5,212.833 309.5,209.5C 299.5,209.5 289.5,209.5 279.5,209.5C 279.5,206.167 279.5,202.833 279.5,199.5C 282.833,199.5 286.167,199.5 289.5,199.5C 289.5,196.167 289.5,192.833 289.5,189.5C 282.833,189.5 276.167,189.5 269.5,189.5C 269.5,186.167 269.5,182.833 269.5,179.5C 279.5,179.5 289.5,179.5 299.5,179.5C 299.5,176.167 299.5,172.833 299.5,169.5C 302.833,169.5 306.167,169.5 309.5,169.5 Z"/></g>
<g><path style="opacity:1" fill="#f6e3f9" d="M 309.5,169.5 C 319.5,169.5 329.5,169.5 339.5,169.5C 339.5,172.833 339.5,176.167 339.5,179.5C 336.167,179.5 332.833,179.5 329.5,179.5C 329.5,182.833 329.5,186.167 329.5,189.5C 326.167,189.5 322.833,189.5 319.5,189.5C 319.5,186.167 319.5,182.833 319.5,179.5C 316.167,179.5 312.833,179.5 309.5,179.5C 309.5,176.167 309.5,172.833 309.5,169.5 Z"/></g>
<g><path style="opacity:1" fill="#f9c3ee" d="M 699.5,169.5 C 709.5,169.5 719.5,169.5 729.5,169.5C 736.167,169.5 742.833,169.5 749.5,169.5C 752.833,169.5 756.167,169.5 759.5,169.5C 759.5,172.833 759.5,176.167 759.5,179.5C 766.167,179.5 772.833,179.5 779.5,179.5C 779.5,182.833 779.5,186.167 779.5,189.5C 789.5,189.5 799.5,189.5 809.5,189.5C 809.5,186.167 809.5,182.833 809.5,179.5C 812.833,179.5 816.167,179.5 819.5,179.5C 819.5,186.167 819.5,192.833 819.5,199.5C 816.167,199.5 812.833,199.5 809.5,199.5C 809.5,202.833 809.5,206.167 809.5,209.5C 802.833,209.5 796.167,209.5 789.5,209.5C 789.5,206.167 789.5,202.833 789.5,199.5C 782.833,199.5 776.167,199.5 769.5,199.5C 769.5,196.167 769.5,192.833 769.5,189.5C 746.167,189.5 722.833,189.5 699.5,189.5C 696.167,189.5 692.833,189.5 689.5,189.5C 689.5,186.167 689.5,182.833 689.5,179.5C 692.833,179.5 696.167,179.5 699.5,179.5C 699.5,176.167 699.5,172.833 699.5,169.5 Z"/></g>
<g><path style="opacity:1" fill="#f6e3f9" d="M 839.5,179.5 C 842.833,179.5 846.167,179.5 849.5,179.5C 849.5,182.833 849.5,186.167 849.5,189.5C 846.167,189.5 842.833,189.5 839.5,189.5C 839.5,186.167 839.5,182.833 839.5,179.5 Z"/></g>
<g><path style="opacity:1" fill="#f9c3ee" d="M 849.5,179.5 C 859.5,179.5 869.5,179.5 879.5,179.5C 879.5,182.833 879.5,186.167 879.5,189.5C 869.5,189.5 859.5,189.5 849.5,189.5C 849.5,186.167 849.5,182.833 849.5,179.5 Z"/></g>
<g><path style="opacity:1" fill="#f9a3e5" d="M 149.5,189.5 C 156.167,189.5 162.833,189.5 169.5,189.5C 169.5,192.833 169.5,196.167 169.5,199.5C 166.167,199.5 162.833,199.5 159.5,199.5C 159.5,206.167 159.5,212.833 159.5,219.5C 152.833,219.5 146.167,219.5 139.5,219.5C 139.5,216.167 139.5,212.833 139.5,209.5C 142.833,209.5 146.167,209.5 149.5,209.5C 149.5,202.833 149.5,196.167 149.5,189.5 Z"/></g>
<g><path style="opacity:1" fill="#f9a3e5" d="M 319.5,189.5 C 322.833,189.5 326.167,189.5 329.5,189.5C 329.5,192.833 329.5,196.167 329.5,199.5C 326.167,199.5 322.833,199.5 319.5,199.5C 319.5,196.167 319.5,192.833 319.5,189.5 Z"/></g>
<g><path style="opacity:1" fill="#f6e3f9" d="M 329.5,189.5 C 339.5,189.5 349.5,189.5 359.5,189.5C 359.5,192.833 359.5,196.167 359.5,199.5C 356.167,199.5 352.833,199.5 349.5,199.5C 349.5,202.833 349.5,206.167 349.5,209.5C 346.167,209.5 342.833,209.5 339.5,209.5C 339.5,206.167 339.5,202.833 339.5,199.5C 336.167,199.5 332.833,199.5 329.5,199.5C 329.5,196.167 329.5,192.833 329.5,189.5 Z"/></g>
<g><path style="opacity:1" fill="#f9a3e5" d="M 359.5,189.5 C 362.833,189.5 366.167,189.5 369.5,189.5C 372.833,189.5 376.167,189.5 379.5,189.5C 379.5,196.167 379.5,202.833 379.5,209.5C 382.833,209.5 386.167,209.5 389.5,209.5C 389.5,212.833 389.5,216.167 389.5,219.5C 392.833,219.5 396.167,219.5 399.5,219.5C 399.5,226.167 399.5,232.833 399.5,239.5C 386.167,239.5 372.833,239.5 359.5,239.5C 359.5,246.167 359.5,252.833 359.5,259.5C 356.167,259.5 352.833,259.5 349.5,259.5C 349.5,266.167 349.5,272.833 349.5,279.5C 346.167,279.5 342.833,279.5 339.5,279.5C 339.5,289.5 339.5,299.5 339.5,309.5C 336.167,309.5 332.833,309.5 329.5,309.5C 329.5,316.167 329.5,322.833 329.5,329.5C 326.167,329.5 322.833,329.5 319.5,329.5C 319.5,332.833 319.5,336.167 319.5,339.5C 296.167,339.5 272.833,339.5 249.5,339.5C 249.5,342.833 249.5,346.167 249.5,349.5C 236.167,349.5 222.833,349.5 209.5,349.5C 209.5,346.167 209.5,342.833 209.5,339.5C 202.833,339.5 196.167,339.5 189.5,339.5C 189.5,336.167 189.5,332.833 189.5,329.5C 222.833,329.5 256.167,329.5 289.5,329.5C 289.5,326.167 289.5,322.833 289.5,319.5C 296.167,319.5 302.833,319.5 309.5,319.5C 309.5,316.167 309.5,312.833 309.5,309.5C 312.833,309.5 316.167,309.5 319.5,309.5C 319.5,299.5 319.5,289.5 319.5,279.5C 322.833,279.5 326.167,279.5 329.5,279.5C 329.5,269.5 329.5,259.5 329.5,249.5C 332.833,249.5 336.167,249.5 339.5,249.5C 339.5,246.167 339.5,242.833 339.5,239.5C 342.833,239.5 346.167,239.5 349.5,239.5C 349.5,229.5 349.5,219.5 349.5,209.5C 349.5,206.167 349.5,202.833 349.5,199.5C 352.833,199.5 356.167,199.5 359.5,199.5C 359.5,196.167 359.5,192.833 359.5,189.5 Z"/></g>
<g><path style="opacity:1" fill="#f9a3e5" d="M 699.5,189.5 C 722.833,189.5 746.167,189.5 769.5,189.5C 769.5,192.833 769.5,196.167 769.5,199.5C 749.5,199.5 729.5,199.5 709.5,199.5C 709.5,202.833 709.5,206.167 709.5,209.5C 706.167,209.5 702.833,209.5 699.5,209.5C 699.5,202.833 699.5,196.167 699.5,189.5 Z"/></g>
<g><path style="opacity:1" fill="#f9a3e5" d="M 769.5,199.5 C 776.167,199.5 782.833,199.5 789.5,199.5C 789.5,202.833 789.5,206.167 789.5,209.5C 796.167,209.5 802.833,209.5 809.5,209.5C 809.5,206.167 809.5,202.833 809.5,199.5C 812.833,199.5 816.167,199.5 819.5,199.5C 819.5,206.167 819.5,212.833 819.5,219.5C 806.167,219.5 792.833,219.5 779.5,219.5C 779.5,216.167 779.5,212.833 779.5,209.5C 776.167,209.5 772.833,209.5 769.5,209.5C 769.5,206.167 769.5,202.833 769.5,199.5 Z"/></g>
<g><path style="opacity:1" fill="#f9c3ee" d="M 219.5,229.5 C 219.5,226.167 219.5,222.833 219.5,219.5C 222.833,219.5 226.167,219.5 229.5,219.5C 229.5,216.167 229.5,212.833 229.5,209.5C 236.167,209.5 242.833,209.5 249.5,209.5C 249.5,212.833 249.5,216.167 249.5,219.5C 246.167,219.5 242.833,219.5 239.5,219.5C 239.5,222.833 239.5,226.167 239.5,229.5C 232.833,229.5 226.167,229.5 219.5,229.5 Z"/></g>
<g><path style="opacity:1" fill="#f9c3ee" d="M 389.5,209.5 C 399.5,209.5 409.5,209.5 419.5,209.5C 419.5,212.833 419.5,216.167 419.5,219.5C 422.833,219.5 426.167,219.5 429.5,219.5C 429.5,222.833 429.5,226.167 429.5,229.5C 436.167,229.5 442.833,229.5 449.5,229.5C 449.5,226.167 449.5,222.833 449.5,219.5C 456.167,219.5 462.833,219.5 469.5,219.5C 469.5,216.167 469.5,212.833 469.5,209.5C 472.833,209.5 476.167,209.5 479.5,209.5C 479.5,212.833 479.5,216.167 479.5,219.5C 482.833,219.5 486.167,219.5 489.5,219.5C 489.5,222.833 489.5,226.167 489.5,229.5C 489.5,232.833 489.5,236.167 489.5,239.5C 472.833,239.5 456.167,239.5 439.5,239.5C 439.5,242.833 439.5,246.167 439.5,249.5C 429.5,249.5 419.5,249.5 409.5,249.5C 409.5,252.833 409.5,256.167 409.5,259.5C 402.833,259.5 396.167,259.5 389.5,259.5C 389.5,262.833 389.5,266.167 389.5,269.5C 386.167,269.5 382.833,269.5 379.5,269.5C 379.5,279.5 379.5,289.5 379.5,299.5C 382.833,299.5 386.167,299.5 389.5,299.5C 389.5,302.833 389.5,306.167 389.5,309.5C 399.5,309.5 409.5,309.5 419.5,309.5C 419.5,306.167 419.5,302.833 419.5,299.5C 422.833,299.5 426.167,299.5 429.5,299.5C 429.5,302.833 429.5,306.167 429.5,309.5C 439.5,309.5 449.5,309.5 459.5,309.5C 459.5,306.167 459.5,302.833 459.5,299.5C 462.833,299.5 466.167,299.5 469.5,299.5C 469.5,292.833 469.5,286.167 469.5,279.5C 476.167,279.5 482.833,279.5 489.5,279.5C 489.5,282.833 489.5,286.167 489.5,289.5C 492.833,289.5 496.167,289.5 499.5,289.5C 499.5,292.833 499.5,296.167 499.5,299.5C 502.833,299.5 506.167,299.5 509.5,299.5C 509.5,309.5 509.5,319.5 509.5,329.5C 506.167,329.5 502.833,329.5 499.5,329.5C 499.5,332.833 499.5,336.167 499.5,339.5C 489.5,339.5 479.5,339.5 469.5,339.5C 469.5,336.167 469.5,332.833 469.5,329.5C 466.167,329.5 462.833,329.5 459.5,329.5C 459.5,326.167 459.5,322.833 459.5,319.5C 442.833,319.5 426.167,319.5 409.5,319.5C 409.5,322.833 409.5,326.167 409.5,329.5C 392.833,329.5 376.167,329.5 359.5,329.5C 359.5,326.167 359.5,322.833 359.5,319.5C 356.167,319.5 352.833,319.5 349.5,319.5C 349.5,316.167 349.5,312.833 349.5,309.5C 346.167,309.5 342.833,309.5 339.5,309.5C 339.5,299.5 339.5,289.5 339.5,279.5C 342.833,279.5 346.167,279.5 349.5,279.5C 349.5,272.833 349.5,266.167 349.5,259.5C 352.833,259.5 356.167,259.5 359.5,259.5C 359.5,252.833 359.5,246.167 359.5,239.5C 372.833,239.5 386.167,239.5 399.5,239.5C 399.5,232.833 399.5,226.167 399.5,219.5C 396.167,219.5 392.833,219.5 389.5,219.5C 389.5,216.167 389.5,212.833 389.5,209.5 Z"/></g>
<g><path style="opacity:1" fill="#f6e3f9" d="M 29.5,219.5 C 32.8333,219.5 36.1667,219.5 39.5,219.5C 39.5,222.833 39.5,226.167 39.5,229.5C 36.1667,229.5 32.8333,229.5 29.5,229.5C 29.5,226.167 29.5,222.833 29.5,219.5 Z"/></g>
<g><path style="opacity:1" fill="#f9c3ee" d="M 219.5,229.5 C 219.5,232.833 219.5,236.167 219.5,239.5C 209.5,239.5 199.5,239.5 189.5,239.5C 189.5,236.167 189.5,232.833 189.5,229.5C 186.167,229.5 182.833,229.5 179.5,229.5C 179.5,232.833 179.5,236.167 179.5,239.5C 172.833,239.5 166.167,239.5 159.5,239.5C 159.5,242.833 159.5,246.167 159.5,249.5C 156.167,249.5 152.833,249.5 149.5,249.5C 149.5,242.833 149.5,236.167 149.5,229.5C 156.167,229.5 162.833,229.5 169.5,229.5C 169.5,226.167 169.5,222.833 169.5,219.5C 179.5,219.5 189.5,219.5 199.5,219.5C 199.5,222.833 199.5,226.167 199.5,229.5C 206.167,229.5 212.833,229.5 219.5,229.5 Z"/></g>
<g><path style="opacity:1" fill="#f9a3e5" d="M 309.5,219.5 C 312.833,219.5 316.167,219.5 319.5,219.5C 319.5,222.833 319.5,226.167 319.5,229.5C 316.167,229.5 312.833,229.5 309.5,229.5C 309.5,226.167 309.5,222.833 309.5,219.5 Z"/></g>
<g><path style="opacity:1" fill="#f9a3e5" d="M 409.5,229.5 C 412.833,229.5 416.167,229.5 419.5,229.5C 419.5,232.833 419.5,236.167 419.5,239.5C 416.167,239.5 412.833,239.5 409.5,239.5C 409.5,236.167 409.5,232.833 409.5,229.5 Z"/></g>
<g><path style="opacity:1" fill="#f6e3f9" d="M 489.5,229.5 C 506.167,229.5 522.833,229.5 539.5,229.5C 539.5,232.833 539.5,236.167 539.5,239.5C 532.833,239.5 526.167,239.5 519.5,239.5C 519.5,242.833 519.5,246.167 519.5,249.5C 516.167,249.5 512.833,249.5 509.5,249.5C 509.5,252.833 509.5,256.167 509.5,259.5C 506.167,259.5 502.833,259.5 499.5,259.5C 499.5,262.833 499.5,266.167 499.5,269.5C 502.833,269.5 506.167,269.5 509.5,269.5C 509.5,279.5 509.5,289.5 509.5,299.5C 506.167,299.5 502.833,299.5 499.5,299.5C 499.5,296.167 499.5,292.833 499.5,289.5C 496.167,289.5 492.833,289.5 489.5,289.5C 489.5,286.167 489.5,282.833 489.5,279.5C 482.833,279.5 476.167,279.5 469.5,279.5C 469.5,286.167 469.5,292.833 469.5,299.5C 466.167,299.5 462.833,299.5 459.5,299.5C 459.5,302.833 459.5,306.167 459.5,309.5C 449.5,309.5 439.5,309.5 429.5,309.5C 429.5,306.167 429.5,302.833 429.5,299.5C 426.167,299.5 422.833,299.5 419.5,299.5C 419.5,302.833 419.5,306.167 419.5,309.5C 409.5,309.5 399.5,309.5 389.5,309.5C 389.5,306.167 389.5,302.833 389.5,299.5C 386.167,299.5 382.833,299.5 379.5,299.5C 379.5,289.5 379.5,279.5 379.5,269.5C 382.833,269.5 386.167,269.5 389.5,269.5C 389.5,266.167 389.5,262.833 389.5,259.5C 396.167,259.5 402.833,259.5 409.5,259.5C 409.5,256.167 409.5,252.833 409.5,249.5C 419.5,249.5 429.5,249.5 439.5,249.5C 439.5,246.167 439.5,242.833 439.5,239.5C 456.167,239.5 472.833,239.5 489.5,239.5C 489.5,236.167 489.5,232.833 489.5,229.5 Z"/></g>
<g><path style="opacity:1" fill="#f9c3ee" d="M 79.5,259.5 C 76.1667,259.5 72.8333,259.5 69.5,259.5C 69.5,266.167 69.5,272.833 69.5,279.5C 59.5,279.5 49.5,279.5 39.5,279.5C 39.5,276.167 39.5,272.833 39.5,269.5C 42.8333,269.5 46.1667,269.5 49.5,269.5C 52.8333,269.5 56.1667,269.5 59.5,269.5C 59.5,262.833 59.5,256.167 59.5,249.5C 62.8333,249.5 66.1667,249.5 69.5,249.5C 69.5,246.167 69.5,242.833 69.5,239.5C 72.8333,239.5 76.1667,239.5 79.5,239.5C 79.5,246.167 79.5,252.833 79.5,259.5 Z"/></g>
<g><path style="opacity:1" fill="#f9a3e5" d="M 179.5,239.5 C 179.5,242.833 179.5,246.167 179.5,249.5C 176.167,249.5 172.833,249.5 169.5,249.5C 169.5,252.833 169.5,256.167 169.5,259.5C 149.5,259.5 129.5,259.5 109.5,259.5C 109.5,256.167 109.5,252.833 109.5,249.5C 116.167,249.5 122.833,249.5 129.5,249.5C 136.167,249.5 142.833,249.5 149.5,249.5C 152.833,249.5 156.167,249.5 159.5,249.5C 159.5,246.167 159.5,242.833 159.5,239.5C 166.167,239.5 172.833,239.5 179.5,239.5 Z"/></g>
<g><path style="opacity:1" fill="#f9c3ee" d="M 289.5,249.5 C 286.167,249.5 282.833,249.5 279.5,249.5C 279.5,252.833 279.5,256.167 279.5,259.5C 272.833,259.5 266.167,259.5 259.5,259.5C 259.5,256.167 259.5,252.833 259.5,249.5C 262.833,249.5 266.167,249.5 269.5,249.5C 269.5,246.167 269.5,242.833 269.5,239.5C 276.167,239.5 282.833,239.5 289.5,239.5C 289.5,242.833 289.5,246.167 289.5,249.5 Z"/></g>
<g><path style="opacity:1" fill="#f9c3ee" d="M 539.5,239.5 C 542.833,239.5 546.167,239.5 549.5,239.5C 549.5,242.833 549.5,246.167 549.5,249.5C 542.833,249.5 536.167,249.5 529.5,249.5C 529.5,269.5 529.5,289.5 529.5,309.5C 542.833,309.5 556.167,309.5 569.5,309.5C 569.5,312.833 569.5,316.167 569.5,319.5C 579.5,319.5 589.5,319.5 599.5,319.5C 599.5,322.833 599.5,326.167 599.5,329.5C 619.5,329.5 639.5,329.5 659.5,329.5C 659.5,326.167 659.5,322.833 659.5,319.5C 666.167,319.5 672.833,319.5 679.5,319.5C 679.5,316.167 679.5,312.833 679.5,309.5C 689.5,309.5 699.5,309.5 709.5,309.5C 709.5,312.833 709.5,316.167 709.5,319.5C 716.167,319.5 722.833,319.5 729.5,319.5C 729.5,322.833 729.5,326.167 729.5,329.5C 719.5,329.5 709.5,329.5 699.5,329.5C 699.5,326.167 699.5,322.833 699.5,319.5C 696.167,319.5 692.833,319.5 689.5,319.5C 689.5,322.833 689.5,326.167 689.5,329.5C 682.833,329.5 676.167,329.5 669.5,329.5C 669.5,332.833 669.5,336.167 669.5,339.5C 642.833,339.5 616.167,339.5 589.5,339.5C 589.5,336.167 589.5,332.833 589.5,329.5C 579.5,329.5 569.5,329.5 559.5,329.5C 559.5,326.167 559.5,322.833 559.5,319.5C 552.833,319.5 546.167,319.5 539.5,319.5C 539.5,322.833 539.5,326.167 539.5,329.5C 536.167,329.5 532.833,329.5 529.5,329.5C 529.5,326.167 529.5,322.833 529.5,319.5C 526.167,319.5 522.833,319.5 519.5,319.5C 519.5,312.833 519.5,306.167 519.5,299.5C 516.167,299.5 512.833,299.5 509.5,299.5C 509.5,289.5 509.5,279.5 509.5,269.5C 506.167,269.5 502.833,269.5 499.5,269.5C 499.5,266.167 499.5,262.833 499.5,259.5C 502.833,259.5 506.167,259.5 509.5,259.5C 509.5,256.167 509.5,252.833 509.5,249.5C 512.833,249.5 516.167,249.5 519.5,249.5C 519.5,246.167 519.5,242.833 519.5,239.5C 526.167,239.5 532.833,239.5 539.5,239.5 Z"/></g>
<g><path style="opacity:1" fill="#f6e3f9" d="M 59.5,249.5 C 59.5,256.167 59.5,262.833 59.5,269.5C 56.1667,269.5 52.8333,269.5 49.5,269.5C 49.5,266.167 49.5,262.833 49.5,259.5C 46.1667,259.5 42.8333,259.5 39.5,259.5C 39.5,256.167 39.5,252.833 39.5,249.5C 46.1667,249.5 52.8333,249.5 59.5,249.5 Z"/></g>
<g><path style="opacity:1" fill="#f9e9f5" d="M 239.5,259.5 C 239.5,262.833 239.5,266.167 239.5,269.5C 222.833,269.5 206.167,269.5 189.5,269.5C 189.5,266.167 189.5,262.833 189.5,259.5C 202.833,259.5 216.167,259.5 229.5,259.5C 229.5,256.167 229.5,252.833 229.5,249.5C 232.833,249.5 236.167,249.5 239.5,249.5C 239.5,252.833 239.5,256.167 239.5,259.5 Z"/></g>
<g><path style="opacity:1" fill="#f9a3e5" d="M 289.5,249.5 C 289.5,256.167 289.5,262.833 289.5,269.5C 286.167,269.5 282.833,269.5 279.5,269.5C 279.5,272.833 279.5,276.167 279.5,279.5C 272.833,279.5 266.167,279.5 259.5,279.5C 259.5,282.833 259.5,286.167 259.5,289.5C 256.167,289.5 252.833,289.5 249.5,289.5C 249.5,286.167 249.5,282.833 249.5,279.5C 249.5,276.167 249.5,272.833 249.5,269.5C 252.833,269.5 256.167,269.5 259.5,269.5C 259.5,266.167 259.5,262.833 259.5,259.5C 266.167,259.5 272.833,259.5 279.5,259.5C 279.5,256.167 279.5,252.833 279.5,249.5C 282.833,249.5 286.167,249.5 289.5,249.5 Z"/></g>
<g><path style="opacity:1" fill="#f6e3f9" d="M 549.5,249.5 C 552.833,249.5 556.167,249.5 559.5,249.5C 559.5,252.833 559.5,256.167 559.5,259.5C 566.167,259.5 572.833,259.5 579.5,259.5C 579.5,262.833 579.5,266.167 579.5,269.5C 569.5,269.5 559.5,269.5 549.5,269.5C 549.5,272.833 549.5,276.167 549.5,279.5C 546.167,279.5 542.833,279.5 539.5,279.5C 539.5,286.167 539.5,292.833 539.5,299.5C 542.833,299.5 546.167,299.5 549.5,299.5C 549.5,296.167 549.5,292.833 549.5,289.5C 552.833,289.5 556.167,289.5 559.5,289.5C 559.5,286.167 559.5,282.833 559.5,279.5C 569.5,279.5 579.5,279.5 589.5,279.5C 609.5,279.5 629.5,279.5 649.5,279.5C 649.5,286.167 649.5,292.833 649.5,299.5C 652.833,299.5 656.167,299.5 659.5,299.5C 659.5,302.833 659.5,306.167 659.5,309.5C 666.167,309.5 672.833,309.5 679.5,309.5C 679.5,312.833 679.5,316.167 679.5,319.5C 672.833,319.5 666.167,319.5 659.5,319.5C 659.5,322.833 659.5,326.167 659.5,329.5C 639.5,329.5 619.5,329.5 599.5,329.5C 599.5,326.167 599.5,322.833 599.5,319.5C 589.5,319.5 579.5,319.5 569.5,319.5C 569.5,316.167 569.5,312.833 569.5,309.5C 556.167,309.5 542.833,309.5 529.5,309.5C 529.5,289.5 529.5,269.5 529.5,249.5C 536.167,249.5 542.833,249.5 549.5,249.5 Z"/></g>
<g><path style="opacity:1" fill="#f9a3e5" d="M 39.5,259.5 C 42.8333,259.5 46.1667,259.5 49.5,259.5C 49.5,262.833 49.5,266.167 49.5,269.5C 46.1667,269.5 42.8333,269.5 39.5,269.5C 39.5,266.167 39.5,262.833 39.5,259.5 Z"/></g>
<g><path style="opacity:1" fill="#f9c3ee" d="M 239.5,259.5 C 246.167,259.5 252.833,259.5 259.5,259.5C 259.5,262.833 259.5,266.167 259.5,269.5C 256.167,269.5 252.833,269.5 249.5,269.5C 249.5,272.833 249.5,276.167 249.5,279.5C 246.167,279.5 242.833,279.5 239.5,279.5C 239.5,276.167 239.5,272.833 239.5,269.5C 239.5,266.167 239.5,262.833 239.5,259.5 Z"/></g>
<g><path style="opacity:1" fill="#f9e9f5" d="M 189.5,269.5 C 189.5,272.833 189.5,276.167 189.5,279.5C 179.5,279.5 169.5,279.5 159.5,279.5C 159.5,276.167 159.5,272.833 159.5,269.5C 169.5,269.5 179.5,269.5 189.5,269.5 Z"/></g>
<g><path style="opacity:1" fill="#f9c3ee" d="M 579.5,269.5 C 582.833,269.5 586.167,269.5 589.5,269.5C 589.5,272.833 589.5,276.167 589.5,279.5C 579.5,279.5 569.5,279.5 559.5,279.5C 559.5,282.833 559.5,286.167 559.5,289.5C 556.167,289.5 552.833,289.5 549.5,289.5C 549.5,292.833 549.5,296.167 549.5,299.5C 546.167,299.5 542.833,299.5 539.5,299.5C 539.5,292.833 539.5,286.167 539.5,279.5C 542.833,279.5 546.167,279.5 549.5,279.5C 549.5,276.167 549.5,272.833 549.5,269.5C 559.5,269.5 569.5,269.5 579.5,269.5 Z"/></g>
<g><path style="opacity:1" fill="#f9c3ee" d="M 9.5,279.5 C 16.1667,279.5 22.8333,279.5 29.5,279.5C 29.5,282.833 29.5,286.167 29.5,289.5C 36.1667,289.5 42.8333,289.5 49.5,289.5C 49.5,292.833 49.5,296.167 49.5,299.5C 52.8333,299.5 56.1667,299.5 59.5,299.5C 59.5,302.833 59.5,306.167 59.5,309.5C 66.1667,309.5 72.8333,309.5 79.5,309.5C 79.5,312.833 79.5,316.167 79.5,319.5C 76.1667,319.5 72.8333,319.5 69.5,319.5C 69.5,322.833 69.5,326.167 69.5,329.5C 52.8333,329.5 36.1667,329.5 19.5,329.5C 19.5,326.167 19.5,322.833 19.5,319.5C 16.1667,319.5 12.8333,319.5 9.5,319.5C 9.5,316.167 9.5,312.833 9.5,309.5C 6.16667,309.5 2.83333,309.5 -0.5,309.5C -0.5,306.167 -0.5,302.833 -0.5,299.5C 2.83333,299.5 6.16667,299.5 9.5,299.5C 9.5,292.833 9.5,286.167 9.5,279.5 Z"/></g>
<g><path style="opacity:1" fill="#f9c3ee" d="M 149.5,309.5 C 129.5,309.5 109.5,309.5 89.5,309.5C 89.5,306.167 89.5,302.833 89.5,299.5C 86.1667,299.5 82.8333,299.5 79.5,299.5C 79.5,296.167 79.5,292.833 79.5,289.5C 79.5,286.167 79.5,282.833 79.5,279.5C 82.8333,279.5 86.1667,279.5 89.5,279.5C 89.5,282.833 89.5,286.167 89.5,289.5C 92.8333,289.5 96.1667,289.5 99.5,289.5C 99.5,292.833 99.5,296.167 99.5,299.5C 116.167,299.5 132.833,299.5 149.5,299.5C 149.5,302.833 149.5,306.167 149.5,309.5 Z"/></g>
<g><path style="opacity:1" fill="#f9e9f5" d="M 159.5,279.5 C 159.5,282.833 159.5,286.167 159.5,289.5C 156.167,289.5 152.833,289.5 149.5,289.5C 149.5,286.167 149.5,282.833 149.5,279.5C 152.833,279.5 156.167,279.5 159.5,279.5 Z"/></g>
<g><path style="opacity:1" fill="#f9a3e5" d="M 49.5,289.5 C 59.5,289.5 69.5,289.5 79.5,289.5C 79.5,292.833 79.5,296.167 79.5,299.5C 82.8333,299.5 86.1667,299.5 89.5,299.5C 89.5,302.833 89.5,306.167 89.5,309.5C 86.1667,309.5 82.8333,309.5 79.5,309.5C 72.8333,309.5 66.1667,309.5 59.5,309.5C 59.5,306.167 59.5,302.833 59.5,299.5C 56.1667,299.5 52.8333,299.5 49.5,299.5C 49.5,296.167 49.5,292.833 49.5,289.5 Z"/></g>
<g><path style="opacity:1" fill="#f9e9f5" d="M 579.5,289.5 C 589.5,289.5 599.5,289.5 609.5,289.5C 609.5,292.833 609.5,296.167 609.5,299.5C 619.5,299.5 629.5,299.5 639.5,299.5C 639.5,302.833 639.5,306.167 639.5,309.5C 626.167,309.5 612.833,309.5 599.5,309.5C 599.5,306.167 599.5,302.833 599.5,299.5C 592.833,299.5 586.167,299.5 579.5,299.5C 579.5,296.167 579.5,292.833 579.5,289.5 Z"/></g>
<g><path style="opacity:1" fill="#f9a3e5" d="M 19.5,299.5 C 26.1667,299.5 32.8333,299.5 39.5,299.5C 39.5,302.833 39.5,306.167 39.5,309.5C 42.8333,309.5 46.1667,309.5 49.5,309.5C 49.5,312.833 49.5,316.167 49.5,319.5C 42.8333,319.5 36.1667,319.5 29.5,319.5C 29.5,316.167 29.5,312.833 29.5,309.5C 26.1667,309.5 22.8333,309.5 19.5,309.5C 19.5,306.167 19.5,302.833 19.5,299.5 Z"/></g>
<g><path style="opacity:1" fill="#f9a3e5" d="M 509.5,299.5 C 512.833,299.5 516.167,299.5 519.5,299.5C 519.5,306.167 519.5,312.833 519.5,319.5C 522.833,319.5 526.167,319.5 529.5,319.5C 529.5,322.833 529.5,326.167 529.5,329.5C 532.833,329.5 536.167,329.5 539.5,329.5C 539.5,326.167 539.5,322.833 539.5,319.5C 546.167,319.5 552.833,319.5 559.5,319.5C 559.5,322.833 559.5,326.167 559.5,329.5C 569.5,329.5 579.5,329.5 589.5,329.5C 589.5,332.833 589.5,336.167 589.5,339.5C 616.167,339.5 642.833,339.5 669.5,339.5C 669.5,336.167 669.5,332.833 669.5,329.5C 676.167,329.5 682.833,329.5 689.5,329.5C 689.5,332.833 689.5,336.167 689.5,339.5C 686.167,339.5 682.833,339.5 679.5,339.5C 679.5,342.833 679.5,346.167 679.5,349.5C 672.833,349.5 666.167,349.5 659.5,349.5C 659.5,352.833 659.5,356.167 659.5,359.5C 636.167,359.5 612.833,359.5 589.5,359.5C 589.5,356.167 589.5,352.833 589.5,349.5C 582.833,349.5 576.167,349.5 569.5,349.5C 569.5,346.167 569.5,342.833 569.5,339.5C 549.5,339.5 529.5,339.5 509.5,339.5C 509.5,342.833 509.5,346.167 509.5,349.5C 489.5,349.5 469.5,349.5 449.5,349.5C 449.5,346.167 449.5,342.833 449.5,339.5C 426.167,339.5 402.833,339.5 379.5,339.5C 379.5,342.833 379.5,346.167 379.5,349.5C 369.5,349.5 359.5,349.5 349.5,349.5C 349.5,346.167 349.5,342.833 349.5,339.5C 346.167,339.5 342.833,339.5 339.5,339.5C 339.5,329.5 339.5,319.5 339.5,309.5C 342.833,309.5 346.167,309.5 349.5,309.5C 349.5,312.833 349.5,316.167 349.5,319.5C 352.833,319.5 356.167,319.5 359.5,319.5C 359.5,322.833 359.5,326.167 359.5,329.5C 376.167,329.5 392.833,329.5 409.5,329.5C 409.5,326.167 409.5,322.833 409.5,319.5C 426.167,319.5 442.833,319.5 459.5,319.5C 459.5,322.833 459.5,326.167 459.5,329.5C 462.833,329.5 466.167,329.5 469.5,329.5C 469.5,332.833 469.5,336.167 469.5,339.5C 479.5,339.5 489.5,339.5 499.5,339.5C 499.5,336.167 499.5,332.833 499.5,329.5C 502.833,329.5 506.167,329.5 509.5,329.5C 509.5,319.5 509.5,309.5 509.5,299.5 Z"/></g>
<g><path style="opacity:1" fill="#f9a3e5" d="M 89.5,309.5 C 109.5,309.5 129.5,309.5 149.5,309.5C 149.5,312.833 149.5,316.167 149.5,319.5C 152.833,319.5 156.167,319.5 159.5,319.5C 159.5,322.833 159.5,326.167 159.5,329.5C 136.167,329.5 112.833,329.5 89.5,329.5C 89.5,322.833 89.5,316.167 89.5,309.5 Z"/></g>
<g><path style="opacity:1" fill="#f9a3e5" d="M 699.5,329.5 C 696.167,329.5 692.833,329.5 689.5,329.5C 689.5,326.167 689.5,322.833 689.5,319.5C 692.833,319.5 696.167,319.5 699.5,319.5C 699.5,322.833 699.5,326.167 699.5,329.5 Z"/></g>
<g><path style="opacity:1" fill="#f9a3e5" d="M 749.5,319.5 C 756.167,319.5 762.833,319.5 769.5,319.5C 769.5,322.833 769.5,326.167 769.5,329.5C 762.833,329.5 756.167,329.5 749.5,329.5C 749.5,326.167 749.5,322.833 749.5,319.5 Z"/></g>
<g><path style="opacity:1" fill="#f6e3f9" d="M 689.5,329.5 C 692.833,329.5 696.167,329.5 699.5,329.5C 699.5,332.833 699.5,336.167 699.5,339.5C 696.167,339.5 692.833,339.5 689.5,339.5C 689.5,336.167 689.5,332.833 689.5,329.5 Z"/></g>
<g><path style="opacity:1" fill="#f9a3e5" d="M 699.5,329.5 C 709.5,329.5 719.5,329.5 729.5,329.5C 732.833,329.5 736.167,329.5 739.5,329.5C 739.5,332.833 739.5,336.167 739.5,339.5C 726.167,339.5 712.833,339.5 699.5,339.5C 699.5,336.167 699.5,332.833 699.5,329.5 Z"/></g>
</svg>
